<!DOCTYPE svg PUBLIC "-//W3C//DTD SVG 1.1//EN" "http://www.w3.org/Graphics/SVG/1.1/DTD/svg11.dtd" [
	<!ENTITY ns_flows "http://ns.adobe.com/Flows/1.0/">
]>
<svg xmlns="http://www.w3.org/2000/svg" width="300" height="154" viewBox="22.457 26.507 300 154"><path fill="#B0C700" d="M322.126 134.57H22.572l-.07-21.007h299.65z"/><path fill="#0080C6" d="M22.536 123.242V26.58H75.7v9.67H33.17v33.185h31.895v9.668H33.17v34.473h67.368v9.666z"/><path fill="#0080C6" d="M150.782 123.242l-44.14-47.363v47.362H96.008V26.58h10.636v47.366L149.01 26.58h14.498l-45.753 45.593 47.526 51.07z"/><path fill="none" d="M344.557 256.167H2L0 0h342.557"/><path fill="#69AEDB" d="M189.32 134.678c-8.217 0-16.432-.968-24.326-2.9v-8.7c8.055 1.13 16.11 2.095 24.326 2.095 12.244 0 28.835-.804 28.835-17.076 0-26.742-51.066-9.346-51.066-44.14 0-23.843 20.136-27.39 39.467-27.39 6.928 0 14.016.81 20.62 3.063v8.54c-6.765-1.29-13.69-2.096-20.62-2.096-12.082 0-28.836.323-28.836 16.59 0 25.777 51.07 8.058 51.07 43.822 0 23.52-19.977 28.192-39.47 28.192M311.69 134.627v-45.4h-53.16v45.4h-10.634V36.71h10.635v42.85h53.16V36.71h10.634v97.917z"/><path fill="#58585A" d="M28.88 155.48c-3.763 0-6.14-1.277-6.14-5.377 0-3.637 2.27-5.412 5.766-5.412.888 0 2.698.037 3.46.444v1.332c-1.028-.143-2.058-.25-3.105-.25-2.678 0-4.097 1.013-4.097 3.817 0 3.105 1.845 3.903 4.63 3.903.516 0 1.03-.017 1.545-.124v-3.017h-1.882v-1.525h3.904v5.66c-1.313.408-2.697.55-4.08.55M42.343 151.948h-5.855c-.017 1.882 1.97 2.2 3.442 2.2.817 0 1.633-.053 2.432-.142v1.242c-.905.285-2.04.303-2.98.303-3 0-4.863-1.03-4.863-4.277 0-2.61 1.4-4.275 4.063-4.275 2.572 0 3.814 1.418 3.814 3.904 0 .353-.018.69-.054 1.046m-1.773-1.33c0-1.33-.48-2.307-1.987-2.307-1.456 0-2.112.924-2.112 2.343h4.1v-.036zM46.174 155.515c-.78 0-1.88-.018-2.608-.283v-1.243c.78.14 1.562.175 2.342.175.798 0 2.165-.016 2.165-1.116 0-1.563-4.277-.606-4.277-3.55 0-2.005 1.934-2.483 3.566-2.483.71 0 1.793.034 2.45.283v1.242c-.675-.107-1.367-.143-2.04-.143s-2.042.016-2.042.976c0 1.828 4.276.602 4.276 3.62 0 2.074-2.182 2.52-3.832 2.52M59 151.948h-5.854c-.02 1.882 1.97 2.2 3.442 2.2.816 0 1.632-.053 2.43-.142v1.242c-.904.285-2.04.303-2.98.303-2.998 0-4.862-1.03-4.862-4.277 0-2.61 1.403-4.275 4.064-4.275 2.573 0 3.816 1.418 3.816 3.904 0 .353-.02.69-.055 1.046m-1.772-1.33c0-1.33-.48-2.307-1.988-2.307-1.455 0-2.112.924-2.112 2.343h4.1v-.036zM60.88 143.696h1.952v11.712H60.88zM65.137 143.696h1.952v11.712h-1.953zM71.346 155.515c-.78 0-1.88-.018-2.607-.283v-1.243c.78.14 1.56.175 2.34.175.798 0 2.165-.016 2.165-1.116 0-1.563-4.276-.606-4.276-3.55 0-2.005 1.933-2.483 3.565-2.483.71 0 1.792.034 2.45.283v1.242a13.1 13.1 0 0 0-2.042-.143c-.674 0-2.04.016-2.04.976 0 1.828 4.276.602 4.276 3.62 0 2.074-2.183 2.52-3.834 2.52M81.157 155.497c-2.892 0-4.81-.976-4.81-4.152 0-2.893 1.74-4.242 4.527-4.242.64 0 1.347.073 1.95.285v1.295c-.513-.052-1.046-.124-1.56-.124-1.9 0-2.964.727-2.964 2.73 0 2.043 1.385 2.752 3.23 2.752.497 0 .993-.02 1.49-.07v1.276c-.603.16-1.242.25-1.863.25M90.418 155.41v-5.166c0-.975-.143-1.613-1.278-1.613-1.01 0-1.97.62-2.466 1.49-.036.055-.16.303-.16.355v4.933h-1.952v-11.712h1.952v4.916c.728-.888 1.987-1.525 3.14-1.525 2.112 0 2.716.657 2.716 2.75v5.572h-1.952M100.05 155.41c-.142-.5-.177-1.012-.177-1.527-.745 1.1-1.917 1.65-3.23 1.65-1.437 0-2.626-.64-2.626-2.218 0-2.325 2.52-2.875 4.383-2.875h1.474v-.07c0-1.616-.46-1.918-2.024-1.918-.887 0-1.792.036-2.662.212v-1.24c.834-.32 2.166-.374 3.07-.374 3.797 0 3.567 1.49 3.567 4.65 0 1.24.018 2.483.124 3.708h-1.9m-.176-3.85h-1.278c-1.064 0-2.662.142-2.662 1.543 0 .747.587 1.065 1.26 1.065.993 0 1.97-.583 2.468-1.437.05-.07.212-.372.212-.442v-.727zM108.3 144.904c-1.723 0-1.705.586-1.705 2.13v.266h2.342v1.384h-2.342v6.726h-1.953v-6.726h-1.17V147.3h1.17v-1.1c0-2.095 1.597-2.574 3.37-2.574.55 0 1.155 0 1.67.177v1.17c-.46-.07-.922-.07-1.383-.07M113.71 155.48c-1.953 0-3.14-.692-3.14-2.787v-3.974h-1.172v-1.42h1.17v-2.096h1.953v2.095h3.124v1.42h-3.123v3.406c0 1.03.106 1.916 1.367 1.916.586 0 1.17-.02 1.757-.07v1.26a7.073 7.073 0 0 1-1.934.247M125.932 144.904c-1.72 0-1.704.586-1.704 2.13v.266h2.343v1.384h-2.342v6.726h-1.95v-6.726h-1.172V147.3h1.17v-1.1c0-2.095 1.6-2.574 3.373-2.574.55 0 1.153 0 1.667.177v1.17c-.462-.07-.922-.07-1.385-.07M133.615 155.41v-1.474c-.728.886-1.988 1.526-3.142 1.526-2.11 0-2.715-.656-2.715-2.75v-5.572h1.954v5.164c0 .975.14 1.615 1.277 1.615 1.01 0 1.97-.622 2.465-1.492.036-.053.16-.3.16-.356v-4.932h1.95v8.27h-1.95m-2.52-9.477h-1.633v-1.526h1.633v1.526zm2.785 0h-1.613v-1.526h1.613v1.526zM142.484 148.843c-1.118 0-1.97.603-2.467 1.597-.053.106-.213.444-.213.55v4.42h-1.952v-8.27h1.952v1.72c.496-.975 1.544-1.79 2.68-1.79.284 0 .568.052.835.16v1.684a4.45 4.45 0 0 0-.836-.07M149.56 155.41v-10.65h6.708v1.51h-4.685v2.98h3.514v1.527h-3.514v3.124h4.685v1.51zM164.057 155.41v-5.166c0-.975-.143-1.613-1.278-1.613-1.013 0-1.97.62-2.467 1.49-.035.055-.16.303-.16.355v4.933H158.2v-8.27h1.953v1.474c.726-.888 1.987-1.525 3.14-1.525 2.113 0 2.715.657 2.715 2.75v5.572h-1.95M175.622 151.948h-5.855c-.017 1.882 1.97 2.2 3.443 2.2.816 0 1.632-.053 2.432-.142v1.242c-.905.285-2.04.303-2.98.303-3 0-4.864-1.03-4.864-4.277 0-2.61 1.4-4.275 4.064-4.275 2.57 0 3.816 1.418 3.816 3.904 0 .353-.018.69-.056 1.046m-1.774-1.33c0-1.33-.48-2.307-1.987-2.307-1.455 0-2.11.924-2.11 2.343h4.1v-.036zM182.113 148.843c-1.116 0-1.97.603-2.466 1.597-.053.106-.212.444-.212.55v4.42h-1.952v-8.27h1.952v1.72c.496-.975 1.544-1.79 2.678-1.79.285 0 .568.052.837.16v1.684a4.47 4.47 0 0 0-.837-.07M186.512 158.922a9.396 9.396 0 0 1-1.704-.177v-1.278c.567.036 1.137.07 1.704.07 2.59 0 3.053-1.347 3.035-3.654-.567.905-1.65 1.526-2.716 1.526-2.216 0-3.137-1.508-3.137-3.568 0-2.572 1.507-4.72 4.24-4.72 1.19 0 2.378.07 3.567.16v6.55c0 3.688-1.242 5.09-4.988 5.09m3.035-10.275a10.354 10.354 0 0 0-1.278-.105c-1.97 0-2.663 1.475-2.663 3.23 0 1.044.48 2.2 1.687 2.2.975 0 1.67-.623 2.094-1.456.034-.072.16-.32.16-.372v-3.497zM195.755 145.578h-1.952v-1.544h1.952v1.544zm0 9.83h-1.952v-8.268h1.952v8.27zM205.373 151.948h-5.858c-.018 1.882 1.972 2.2 3.444 2.2.815 0 1.63-.053 2.43-.142v1.242c-.905.285-2.04.303-2.98.303-3 0-4.863-1.03-4.863-4.277 0-2.61 1.4-4.275 4.063-4.275 2.573 0 3.815 1.418 3.815 3.904 0 .353-.018.69-.052 1.046m-1.775-1.33c0-1.33-.48-2.307-1.988-2.307-1.456 0-2.112.924-2.112 2.343h4.1v-.036zM217.825 155.41v-1.474c-.73.886-1.986 1.526-3.14 1.526-2.113 0-2.716-.656-2.716-2.75v-5.572h1.952v5.164c0 .975.14 1.615 1.278 1.615 1.01 0 1.97-.622 2.466-1.492.037-.053.16-.3.16-.356v-4.932h1.952v8.27h-1.953M227.935 155.41v-5.166c0-.975-.14-1.613-1.276-1.613-1.012 0-1.97.62-2.467 1.49-.036.055-.16.303-.16.355v4.933h-1.952v-8.27h1.953v1.474c.727-.888 1.988-1.525 3.142-1.525 2.11 0 2.714.657 2.714 2.75v5.572h-1.955M237.534 155.41v-1.474c-.568.905-1.65 1.526-2.716 1.526-2.217 0-3.14-1.56-3.14-3.602 0-2.573 1.51-4.72 4.242-4.72.53 0 1.082.053 1.615.142v-3.585h1.952v11.712h-1.953m0-6.745a7.9 7.9 0 0 0-1.278-.123c-1.968 0-2.663 1.526-2.663 3.266 0 1.046.48 2.217 1.687 2.217.958 0 1.65-.566 2.077-1.4.034-.072.177-.356.177-.428v-3.532zM29.856 174.133l-4.49-4.913v4.913h-2.023v-10.646h2.023v5.13l4.384-5.13h2.377l-4.916 4.915 5.237 5.73zM33.65 162.42h1.952v11.713H33.65zM39.86 164.304h-1.953v-1.544h1.952v1.544zm0 9.83h-1.953v-8.27h1.952v8.27zM53.876 174.133v-5.163c0-.976-.142-1.614-1.278-1.614-.94 0-1.88.55-2.377 1.347-.052.09-.248.41-.248.498v4.934H48.02v-5.163c0-.975-.142-1.613-1.278-1.613-.94 0-1.88.55-2.377 1.347-.053.09-.25.41-.25.498v4.933h-1.952v-8.27h1.953v1.474c.728-.888 1.987-1.526 3.14-1.526 1.226 0 2.38.194 2.628 1.614.85-.922 1.934-1.614 3.23-1.614 2.11 0 2.714.656 2.714 2.75v5.57h-1.952M63.507 174.133c-.14-.497-.178-1.01-.178-1.525-.745 1.1-1.917 1.65-3.23 1.65-1.438 0-2.627-.64-2.627-2.218 0-2.325 2.52-2.875 4.383-2.875h1.473v-.072c0-1.615-.46-1.916-2.023-1.916-.888 0-1.793.035-2.663.212v-1.24c.834-.323 2.167-.376 3.07-.376 3.797 0 3.567 1.49 3.567 4.65 0 1.243.02 2.484.125 3.708h-1.898m-.178-3.848H62.05c-1.065 0-2.663.14-2.663 1.542 0 .746.586 1.064 1.26 1.064.994 0 1.97-.583 2.467-1.438.052-.07.212-.372.212-.44v-.728zM69.537 174.24c-.78 0-1.88-.018-2.608-.282v-1.243c.78.14 1.56.176 2.34.176.8 0 2.167-.016 2.167-1.115 0-1.562-4.276-.604-4.276-3.55 0-2.005 1.935-2.483 3.567-2.483.71 0 1.792.033 2.45.283v1.24a13.1 13.1 0 0 0-2.042-.14c-.674 0-2.04.016-2.04.976 0 1.83 4.275.603 4.275 3.62 0 2.076-2.182 2.52-3.833 2.52M79.348 174.222c-2.892 0-4.81-.976-4.81-4.152 0-2.892 1.74-4.242 4.527-4.242.64 0 1.348.074 1.953.285v1.294c-.516-.052-1.048-.123-1.563-.123-1.9 0-2.963.728-2.963 2.733 0 2.042 1.385 2.75 3.23 2.75.497 0 .994-.02 1.49-.072v1.277c-.603.16-1.243.25-1.864.25M88.608 174.133v-5.163c0-.976-.142-1.614-1.277-1.614-1.01 0-1.97.62-2.466 1.49-.036.055-.16.303-.16.354v4.933h-1.952v-11.71h1.952v4.915c.73-.887 1.99-1.525 3.14-1.525 2.114 0 2.717.656 2.717 2.75v5.57H88.61M98.72 174.133v-1.472c-.728.887-1.987 1.527-3.14 1.527-2.113 0-2.716-.657-2.716-2.75v-5.573h1.952v5.165c0 .974.142 1.614 1.277 1.614 1.01 0 1.97-.622 2.467-1.492.036-.052.16-.3.16-.355v-4.932h1.953v8.27H98.72M106.562 174.204c-1.953 0-3.142-.69-3.142-2.785v-3.976h-1.172v-1.42h1.172v-2.095h1.952v2.094h3.123v1.42h-3.123v3.407c0 1.03.106 1.918 1.366 1.918.586 0 1.172-.02 1.757-.072v1.262a7.138 7.138 0 0 1-1.933.246M109.237 174.133v-1.454l4.384-5.36h-4.31v-1.455h6.263v1.454l-4.384 5.36h4.383v1.453zM124.53 174.24c-1.046 0-2.093-.107-3.104-.336v-1.437c.993.16 1.986.25 2.98.25 1.12 0 2.858-.02 2.858-1.546 0-2.467-5.607-.763-5.607-4.72 0-2.626 2.43-3.07 4.542-3.07.904 0 2.094.07 2.927.41v1.365c-.904-.16-1.827-.23-2.75-.23-1.045 0-2.68.053-2.68 1.474 0 .53.25.83.693 1.08.23.125.48.196.728.267 1.862.532 4.188.78 4.188 3.266 0 2.696-2.61 3.227-4.775 3.227M135.458 174.222c-2.892 0-4.808-.976-4.808-4.152 0-2.892 1.74-4.242 4.524-4.242.64 0 1.35.074 1.95.285v1.294c-.512-.052-1.044-.123-1.56-.123-1.897 0-2.96.728-2.96 2.733 0 2.042 1.382 2.75 3.228 2.75.497 0 .994-.02 1.49-.072v1.277c-.604.16-1.242.25-1.864.25M144.72 174.133v-5.163c0-.976-.144-1.614-1.28-1.614-1.01 0-1.968.62-2.464 1.49-.036.055-.16.303-.16.354v4.933h-1.953v-11.71h1.953v4.915c.727-.887 1.987-1.525 3.14-1.525 2.113 0 2.716.656 2.716 2.75v5.57h-1.953M148.975 162.42h1.953v11.713h-1.953zM160.544 170.674h-5.856c-.018 1.882 1.97 2.2 3.442 2.2.816 0 1.632-.054 2.432-.143v1.243c-.905.286-2.042.303-2.982.303-3 0-4.86-1.03-4.86-4.277 0-2.61 1.4-4.278 4.063-4.278 2.572 0 3.814 1.42 3.814 3.905 0 .354-.017.692-.053 1.047m-1.775-1.332c0-1.33-.48-2.306-1.987-2.306-1.457 0-2.113.923-2.113 2.342h4.1v-.036zM164.374 174.24c-.78 0-1.88-.018-2.61-.282v-1.243c.782.14 1.563.176 2.343.176.8 0 2.165-.016 2.165-1.115 0-1.562-4.276-.604-4.276-3.55 0-2.005 1.935-2.483 3.566-2.483.71 0 1.792.033 2.448.283v1.24a13.06 13.06 0 0 0-2.04-.14c-.676 0-2.04.016-2.04.976 0 1.83 4.277.603 4.277 3.62 0 2.076-2.183 2.52-3.833 2.52M179.704 174.133h-1.633l-2.057-6.05-2.504 6.05h-1.633l-2.927-8.268h2.005l2.13 6.14 2.13-6.14h1.93l2.132 6.14 2.13-6.14h1.918zM186.602 164.304h-1.954v-1.544h1.954v1.544zm0 9.83h-1.954v-8.27h1.954v8.27zM191.215 177.647c-.568 0-1.137-.07-1.704-.176v-1.277c.568.036 1.137.07 1.705.07 2.59 0 3.052-1.348 3.034-3.654-.57.904-1.65 1.524-2.715 1.524-2.218 0-3.143-1.507-3.143-3.566 0-2.573 1.51-4.72 4.242-4.72 1.19 0 2.38.07 3.565.16v6.548c0 3.69-1.242 5.09-4.985 5.09m3.034-10.272c-.426-.054-.852-.107-1.277-.107-1.97 0-2.662 1.475-2.662 3.23 0 1.045.48 2.2 1.688 2.2.976 0 1.667-.622 2.092-1.455.037-.07.16-.32.16-.372v-3.496zM198.52 168.01h5.486v1.492h-5.485zM213.62 174.133v-4.63h-5.004v4.63h-2.023v-10.646h2.023v4.49h5.005v-4.49h2.024v10.646zM222.046 174.313c-2.697 0-4.347-1.563-4.347-4.277 0-2.59 1.755-4.35 4.346-4.35 2.697 0 4.33 1.544 4.33 4.26 0 2.574-1.74 4.367-4.33 4.367m0-7.207c-1.667 0-2.43 1.386-2.43 2.893 0 1.492.78 2.89 2.43 2.89 1.668 0 2.414-1.382 2.414-2.89 0-1.49-.762-2.894-2.414-2.894M228.166 162.42h1.95v11.713h-1.95zM234.375 174.24c-.78 0-1.88-.018-2.608-.282v-1.243c.782.14 1.562.176 2.343.176.8 0 2.163-.016 2.163-1.115 0-1.562-4.274-.604-4.274-3.55 0-2.005 1.932-2.483 3.565-2.483.708 0 1.792.033 2.448.283v1.24a13.103 13.103 0 0 0-2.04-.14c-.676 0-2.042.016-2.042.976 0 1.83 4.277.603 4.277 3.62 0 2.076-2.182 2.52-3.832 2.52M243.476 174.204c-1.952 0-3.142-.69-3.142-2.785v-3.976h-1.17v-1.42h1.17v-2.095h1.952v2.094h3.125v1.42h-3.124v3.407c0 1.03.105 1.918 1.367 1.918.584 0 1.17-.02 1.757-.072v1.262a7.15 7.15 0 0 1-1.934.246M254.12 170.674h-5.855c-.018 1.882 1.968 2.2 3.442 2.2.816 0 1.632-.054 2.43-.143v1.243c-.904.286-2.04.303-2.98.303-2.998 0-4.86-1.03-4.86-4.277 0-2.61 1.4-4.278 4.062-4.278 2.57 0 3.814 1.42 3.814 3.905 0 .354-.017.692-.053 1.047m-1.774-1.332c0-1.33-.48-2.306-1.987-2.306-1.457 0-2.113.923-2.113 2.342h4.1v-.036zM257.95 164.304h-1.953v-1.544h1.954v1.544zm0 9.83h-1.953v-8.27h1.954v8.27zM266.113 174.133v-5.163c0-.976-.142-1.614-1.278-1.614-1.012 0-1.97.62-2.467 1.49-.035.055-.16.303-.16.354v4.933h-1.953v-8.27h1.954v1.474c.727-.887 1.984-1.525 3.14-1.525 2.11 0 2.715.656 2.715 2.75v5.57h-1.952M280.89 174.204c-3.763 0-6.142-1.277-6.142-5.377 0-3.637 2.273-5.412 5.77-5.412.886 0 2.696.036 3.46.444v1.33c-1.03-.144-2.06-.25-3.107-.25-2.678 0-4.097 1.014-4.097 3.816 0 3.106 1.846 3.904 4.63 3.904.515 0 1.03-.017 1.545-.125v-3.016h-1.88v-1.528h3.903v5.66c-1.31.412-2.696.552-4.08.552M298.756 174.133v-5.163c0-.976-.143-1.614-1.278-1.614-.94 0-1.88.55-2.377 1.347-.053.09-.247.41-.247.498v4.934H292.9v-5.163c0-.975-.14-1.613-1.277-1.613-.942 0-1.88.55-2.377 1.347-.054.09-.25.41-.25.498v4.933h-1.952v-8.27h1.953v1.474c.728-.888 1.986-1.526 3.14-1.526 1.225 0 2.38.194 2.627 1.614.85-.922 1.933-1.614 3.228-1.614 2.112 0 2.716.656 2.716 2.75v5.57h-1.952M306.572 174.133c-.423 0-.848-.017-1.257-.09-.125-.016-.23-.05-.354-.05-.657 0-1.294.087-1.953.14v-11.71h1.954v4.915c.55-.905 1.65-1.525 2.715-1.525 2.218 0 3.142 1.543 3.142 3.585 0 2.572-1.51 4.735-4.245 4.735m.642-6.883c-.94 0-1.667.584-2.077 1.402-.035.07-.175.372-.175.424v3.514c.408.072.832.142 1.26.142 1.968 0 2.68-1.507 2.68-3.264-.002-1.048-.48-2.218-1.688-2.218M319.9 174.133v-4.63h-5.004v4.63h-2.023v-10.646h2.023v4.49h5.003v-4.49h2.022v10.646z"/></svg>